<svg xmlns="http://www.w3.org/2000/svg" xmlns:xlink="http://www.w3.org/1999/xlink" width="500" zoomAndPan="magnify" viewBox="0 0 375 374.999991" height="500" preserveAspectRatio="xMidYMid meet" version="1.0"><defs><clipPath id="69e74e716e"><path d="M 41.914062 186.398438 L 139 186.398438 L 139 270.519531 L 41.914062 270.519531 Z M 41.914062 186.398438 " clip-rule="nonzero"/></clipPath><clipPath id="4dda0af6d4"><path d="M 90 104.320312 L 235.851562 104.320312 L 235.851562 270.519531 L 90 270.519531 Z M 90 104.320312 " clip-rule="nonzero"/></clipPath><clipPath id="a729dcd47a"><path d="M 187.140625 104.320312 L 332.726562 104.320312 L 332.726562 270.519531 L 187.140625 270.519531 Z M 187.140625 104.320312 " clip-rule="nonzero"/></clipPath></defs><g clip-path="url(#69e74e716e)"><path fill="#7845ac" d="M 114.617188 186.492188 L 66.179688 186.492188 L 41.914062 228.550781 L 66.179688 270.519531 L 114.617188 270.519531 L 138.882812 228.550781 L 114.617188 186.492188 " fill-opacity="1" fill-rule="nonzero"/></g><g clip-path="url(#4dda0af6d4)"><path fill="#ffffff" d="M 220.507812 202.019531 L 220.515625 202.015625 L 218.878906 199.183594 L 211.585938 186.492188 L 211.550781 186.492188 L 178.929688 129.988281 L 178.921875 129.996094 L 163.054688 102.550781 L 114.617188 102.550781 L 90.351562 144.519531 L 106.683594 172.769531 L 106.679688 172.769531 L 146.652344 242.050781 L 163.054688 270.519531 L 211.585938 270.519531 L 235.757812 228.550781 L 220.507812 202.019531 " fill-opacity="1" fill-rule="nonzero"/></g><g clip-path="url(#a729dcd47a)"><path fill="#f0dbff" d="M 316.242188 199.976562 L 316.3125 199.9375 L 274.816406 127.910156 L 274.722656 127.972656 L 260.023438 102.550781 L 211.585938 102.550781 L 187.320312 144.519531 L 211.585938 186.492188 L 211.601562 186.492188 L 235.832031 228.425781 L 235.757812 228.550781 L 260.023438 270.519531 L 308.464844 270.519531 L 332.726562 228.550781 L 316.242188 199.976562 " fill-opacity="1" fill-rule="nonzero"/></g></svg>