<svg xmlns="http://www.w3.org/2000/svg" xmlns:xlink="http://www.w3.org/1999/xlink" width="500" zoomAndPan="magnify" viewBox="0 0 375 374.999991" height="500" preserveAspectRatio="xMidYMid meet" version="1.0"><defs><g/><clipPath id="679f275a07"><path d="M 110.515625 133.054688 L 161.984375 133.054688 L 161.984375 177.238281 L 110.515625 177.238281 Z M 110.515625 133.054688 " clip-rule="nonzero"/></clipPath><clipPath id="0f3b8c360b"><path d="M 136 89.488281 L 212.980469 89.488281 L 212.980469 177.238281 L 136 177.238281 Z M 136 89.488281 " clip-rule="nonzero"/></clipPath><clipPath id="ec1b4f9e64"><path d="M 187.246094 89.488281 L 264.164062 89.488281 L 264.164062 177.238281 L 187.246094 177.238281 Z M 187.246094 89.488281 " clip-rule="nonzero"/></clipPath></defs><g clip-path="url(#679f275a07)"><path fill="#7845ac" d="M 148.925781 133.101562 L 123.335938 133.101562 L 110.515625 155.382812 L 123.335938 177.617188 L 148.925781 177.617188 L 161.746094 155.382812 L 148.925781 133.101562 " fill-opacity="1" fill-rule="nonzero"/></g><g clip-path="url(#0f3b8c360b)"><path fill="#ffffff" d="M 204.875 141.328125 L 204.878906 141.328125 L 204.015625 139.828125 L 200.160156 133.101562 L 200.140625 133.101562 L 182.90625 103.167969 L 182.902344 103.171875 L 174.519531 88.632812 L 148.925781 88.632812 L 136.105469 110.867188 L 144.734375 125.832031 L 165.855469 162.535156 L 174.519531 177.617188 L 200.160156 177.617188 L 212.929688 155.382812 L 204.875 141.328125 " fill-opacity="1" fill-rule="nonzero"/></g><g clip-path="url(#ec1b4f9e64)"><path fill="#f0dbff" d="M 255.457031 140.246094 L 255.492188 140.226562 L 233.566406 102.070312 L 233.515625 102.101562 L 225.753906 88.632812 L 200.160156 88.632812 L 187.339844 110.867188 L 200.160156 133.101562 L 200.167969 133.101562 L 212.96875 155.316406 L 212.929688 155.382812 L 225.753906 177.617188 L 251.34375 177.617188 L 264.164062 155.382812 L 255.457031 140.246094 " fill-opacity="1" fill-rule="nonzero"/></g><g fill="#ffffff" fill-opacity="1"><g transform="translate(88.792967, 237.746996)"><g><path d="M 38.25 0 L 29.15625 0 L 28.703125 -12.953125 L 28.65625 -15.09375 C 28.582031 -17.09375 28.546875 -18.613281 28.546875 -19.65625 C 28.546875 -22.15625 28.644531 -24.65625 28.84375 -27.15625 L 24.09375 -3.59375 L 15.34375 -3.59375 L 10.296875 -27.15625 C 10.597656 -23.25 10.75 -19.8125 10.75 -16.84375 C 10.75 -15.144531 10.734375 -13.847656 10.703125 -12.953125 L 10.296875 0 L 1.203125 0 L 3.75 -34.75 L 15.25 -34.75 L 19.90625 -11.703125 L 24.09375 -34.75 L 35.65625 -34.75 Z M 38.25 0 "/></g></g></g><g fill="#ffffff" fill-opacity="1"><g transform="translate(128.236858, 237.746996)"><g><path d="M 18.5 0 C 17.394531 3.5625 15.550781 6.285156 12.96875 8.171875 C 10.382812 10.054688 6.976562 11.082031 2.75 11.25 L 1.796875 5.09375 C 4.328125 4.832031 6.207031 4.328125 7.4375 3.578125 C 8.675781 2.828125 9.644531 1.632812 10.34375 0 L 7.296875 0 L -0.5 -26.65625 L 8.953125 -26.65625 L 13 -5.546875 L 17.65625 -26.65625 L 26.796875 -26.65625 Z M 18.5 0 "/></g></g></g><g fill="#ffffff" fill-opacity="1"><g transform="translate(154.532782, 237.746996)"><g/></g></g><g fill="#ffffff" fill-opacity="1"><g transform="translate(165.931017, 237.746996)"><g><path d="M 42.40625 -34.75 L 37 0 L 24.953125 0 L 21.25 -25.75 L 17.25 0 L 5.5 0 L 0.25 -34.75 L 9.453125 -34.75 L 12.296875 -6.84375 L 16.546875 -34.75 L 26.25 -34.75 L 30.046875 -6.84375 L 33.546875 -34.75 Z M 42.40625 -34.75 "/></g></g></g><g fill="#ffffff" fill-opacity="1"><g transform="translate(208.574412, 237.746996)"><g><path d="M 14.59375 -27.546875 C 18.757812 -27.546875 22.023438 -26.296875 24.390625 -23.796875 C 26.765625 -21.296875 27.953125 -17.796875 27.953125 -13.296875 C 27.953125 -10.429688 27.414062 -7.929688 26.34375 -5.796875 C 25.28125 -3.660156 23.738281 -2.007812 21.71875 -0.84375 C 19.707031 0.320312 17.332031 0.90625 14.59375 0.90625 C 10.425781 0.90625 7.160156 -0.34375 4.796875 -2.84375 C 2.429688 -5.34375 1.25 -8.84375 1.25 -13.34375 C 1.25 -16.21875 1.78125 -18.71875 2.84375 -20.84375 C 3.914062 -22.976562 5.457031 -24.628906 7.46875 -25.796875 C 9.488281 -26.960938 11.863281 -27.546875 14.59375 -27.546875 Z M 14.59375 -21.09375 C 13.164062 -21.09375 12.109375 -20.46875 11.421875 -19.21875 C 10.742188 -17.96875 10.40625 -16.007812 10.40625 -13.34375 C 10.40625 -10.582031 10.742188 -8.59375 11.421875 -7.375 C 12.109375 -6.15625 13.164062 -5.546875 14.59375 -5.546875 C 16.03125 -5.546875 17.085938 -6.171875 17.765625 -7.421875 C 18.453125 -8.671875 18.796875 -10.628906 18.796875 -13.296875 C 18.796875 -16.035156 18.453125 -18.019531 17.765625 -19.25 C 17.085938 -20.476562 16.03125 -21.09375 14.59375 -21.09375 Z M 14.59375 -21.09375 "/></g></g></g><g fill="#ffffff" fill-opacity="1"><g transform="translate(237.76989, 237.746996)"><g><path d="M 17.90625 -27.453125 C 18.769531 -27.453125 19.664062 -27.300781 20.59375 -27 L 19.15625 -18.40625 C 18.28125 -18.664062 17.476562 -18.796875 16.75 -18.796875 C 15.25 -18.796875 14.109375 -18.285156 13.328125 -17.265625 C 12.546875 -16.253906 11.9375 -14.71875 11.5 -12.65625 L 11.5 0 L 2.59375 0 L 2.59375 -26.65625 L 10.34375 -26.65625 L 11.15625 -21.59375 C 11.6875 -23.363281 12.578125 -24.78125 13.828125 -25.84375 C 15.078125 -26.914062 16.4375 -27.453125 17.90625 -27.453125 Z M 17.90625 -27.453125 "/></g></g></g><g fill="#ffffff" fill-opacity="1"><g transform="translate(258.016753, 237.746996)"><g><path d="M 11.5 -38.046875 L 11.5 0 L 2.59375 0 L 2.59375 -37.15625 Z M 28.25 -26.65625 L 20.703125 -14.953125 L 28.796875 0 L 18.90625 0 L 11.703125 -14.546875 L 19.34375 -26.65625 Z M 28.25 -26.65625 "/></g></g></g></svg>